<svg xmlns="http://www.w3.org/2000/svg" width="520" height="520" viewBox="0 0 520 520" fill="none">
  <g opacity="0.14" stroke="#5c4a3a" stroke-width="1.1">
    <line x1="0" y1="120" x2="520" y2="120"/>
    <line x1="0" y1="136" x2="520" y2="136"/>
    <line x1="0" y1="152" x2="520" y2="152"/>
    <line x1="0" y1="168" x2="520" y2="168"/>
    <line x1="0" y1="184" x2="520" y2="184"/>
  </g>
  <g opacity="0.14" stroke="#5c4a3a" stroke-width="1.1">
    <line x1="40" y1="320" x2="520" y2="320"/>
    <line x1="40" y1="336" x2="520" y2="336"/>
    <line x1="40" y1="352" x2="520" y2="352"/>
    <line x1="40" y1="368" x2="520" y2="368"/>
    <line x1="40" y1="384" x2="520" y2="384"/>
  </g>
  <g opacity="0.1" fill="#4a3d32">
    <ellipse cx="92" cy="128" rx="10" ry="7" transform="rotate(-18 92 128)"/>
    <rect x="100" y="88" width="3" height="48" rx="1" transform="rotate(8 100 88)"/>
    <ellipse cx="220" cy="340" rx="11" ry="7" transform="rotate(12 220 340)"/>
    <rect x="228" y="298" width="3" height="50" rx="1" transform="rotate(-6 228 298)"/>
    <ellipse cx="380" cy="150" rx="10" ry="6" transform="rotate(-10 380 150)"/>
    <rect x="388" y="112" width="3" height="44" rx="1" transform="rotate(4 388 112)"/>
  </g>
  <g opacity="0.08" stroke="#4a3d32" stroke-width="2" fill="none">
    <path d="M400 60 Q440 100 430 160 Q420 220 400 260" stroke-linecap="round"/>
    <path d="M408 260 L408 400" stroke-linecap="round"/>
    <circle cx="408" cy="420" r="14"/>
  </g>
  <g opacity="0.07">
    <rect x="48" y="420" width="18" height="72" rx="2" fill="#2c2416"/>
    <rect x="70" y="420" width="12" height="48" rx="1" fill="#f4f0e8" stroke="#5c4a3a" stroke-width="0.8"/>
    <rect x="86" y="420" width="12" height="48" rx="1" fill="#f4f0e8" stroke="#5c4a3a" stroke-width="0.8"/>
    <rect x="102" y="420" width="18" height="72" rx="2" fill="#2c2416"/>
  </g>
</svg>
